<?xml version="1.0" encoding="utf-8"?>
<!-- Generator: Adobe Illustrator 26.4.1, SVG Export Plug-In . SVG Version: 6.00 Build 0)  -->
<svg version="1.1" id="Camada_1" xmlns="http://www.w3.org/2000/svg" xmlns:xlink="http://www.w3.org/1999/xlink" x="0px" y="0px"
	 viewBox="0 0 512 512" style="enable-background:new 0 0 512 512;" xml:space="preserve">
<style type="text/css">
	.st0{fill:#009D90;}
	.st1{fill:#00274C;}
</style>
<g>
	<path class="st0" d="M101.2,390.7c-33-9.3-49.6-30.6-49.6-64v-27.4c0-19.4-8.2-29-24.5-29v-28.5c16,0,24.1-9.1,24.5-27.4v-29.2
		c0-17,4.1-30.7,12.4-41.2c8.3-10.5,20.6-18,37.2-22.7l7.7,22.2c-7,2.6-12.2,7-15.8,13.4c-3.6,6.4-5.5,15.2-5.6,26.5v28.9
		c0,20.7-8.2,35.3-24.6,43.6c16.4,8.4,24.6,23.1,24.6,43.9V329c0.5,21.5,7.6,34.6,21.5,39.4L101.2,390.7z"/>
	<path class="st1" d="M176.4,155.6v36.6h25.5v29.2h-25.5v74.3c0,5.5,1.1,9.5,3.2,11.8c2.1,2.4,6.1,3.6,12.1,3.6
		c4.4,0,8.3-0.3,11.7-1v30.1c-7.8,2.4-15.8,3.6-24.1,3.6c-27.9,0-42.1-14.1-42.7-42.3v-80.2h-21.7v-29.2h21.7v-36.6H176.4z"/>
	<path class="st1" d="M339.8,299.8h-72.4l-13.8,41.3h-43.9l74.6-200.4h38.3l75,200.4h-43.9L339.8,299.8z M278.6,266.4h50.1l-25.2-75
		L278.6,266.4z"/>
	<path class="st0" d="M403.1,368.4c13.9-5,21.1-18.3,21.5-39.9v-29.2c0-20.7,8.4-35.1,25.2-43.2c-16.8-8.1-25.2-22.7-25.2-43.9
		v-28.8c-0.4-21.4-7.5-34.7-21.5-39.9l7.7-22.2c16.4,4.6,28.8,12.1,37,22.5c8.3,10.4,12.4,24.1,12.5,40.9v29.6
		c0.4,18.3,8.5,27.4,24.5,27.4v28.5c-16.3,0-24.5,9.6-24.5,28.8v29.9c-0.7,32.1-17.3,52.7-49.6,61.8L403.1,368.4z"/>
</g>
</svg>
